<svg xmlns="http://www.w3.org/2000/svg" width="400" height="357.183" viewBox="0 0 400 357.183">
  <g fill-rule="evenodd">
    <path fill="#ffffff"
      d="M304.515 23.033c-5.993 1.259-11.625 6.044-14.54 12.356-.499 1.081-1.032 2.016-1.183 2.077-.38.155-1.913 4.348-2.767 7.574-1.262 4.764-4.345 22.584-4.345 25.116 0 .515-.138 1.022-.308 1.127-.169.105-.398 1.2-.51 2.434a909.756 909.756 0 0 1-.75 7.606c-1.865 18.239-2.058 28.461-1.829 96.872.233 69.371.688 89.452 2.375 104.736.217 1.966.399 3.816.405 4.111.006.295.124.617.262.715 1.186.842.58 3.56-1.416 6.353-1.119 1.564-2.327 3.47-2.686 4.233-.769 1.637-2.517 4.283-3.561 5.39-1.755 1.861-1.991 2.153-1.991 2.463 0 .347-5.246 5.487-7.9 7.74-9.388 7.97-25.098 7.99-32.463.041-6.648-7.175-7.247-13.593-5.41-57.944.966-23.33.959-23.457-1.419-25.835-2.115-2.115-6.473-2.426-10.163-.725-1.864.86-5.558 3.434-5.558 3.874 0 .142-.655.953-1.454 1.802-1.782 1.892-3.476 5.488-5.576 11.838-.878 2.656-1.746 5.008-1.928 5.227-.181.22-.224.505-.095.634.13.129.048.235-.182.235a.416.416 0 0 0-.417.412c0 1.011-5.468 14.223-6.524 15.763-.37.541-.557.983-.415.983.142 0 .01.282-.293.626-.303.344-1.603 2.752-2.889 5.351-1.285 2.599-2.897 5.574-3.582 6.613-.685 1.038-2.06 3.255-3.056 4.926-.996 1.671-1.936 3.199-2.088 3.396-.152.196-.501.791-.774 1.322-.274.53-.875 1.415-1.337 1.966l-1.737 2.074c-.493.59-.896 1.273-.897 1.519 0 .246-.161.447-.358.447a.363.363 0 0 0-.357.367c0 .494-3.961 5.646-8.202 10.667-9.466 11.208-18.087 14.967-25.724 11.216-1.827-.897-8.131-6.514-7.327-6.527.178-.003.143-.124-.077-.268-.576-.378-2.468-4.251-3.338-6.832-1.964-5.831-1.967-5.867-1.974-27.39-.007-21.198-.324-25.408-2.166-28.77-.272-.494-.996-2.141-1.609-3.659-.613-1.518-1.785-3.77-2.603-5.004-.818-1.235-1.57-2.424-1.669-2.643-.153-.336-2.792-2.799-6.437-6.007-5.413-4.765-17.831-6.011-26.768-2.686-2.843 1.058-5.045 2.103-5.052 2.397-.003.143-.796.648-1.763 1.122-.966.474-2.69 1.56-3.83 2.413-1.14.852-2.17 1.55-2.288 1.55-.2 0-1.013.716-4.803 4.226a41.602 41.602 0 0 1-2.828 2.365l-1.398 1.04.238-2.816c.277-3.284 1.229-7.381 1.802-7.758.219-.145.258-.266.087-.269-.172-.003-.159-.206.029-.452.187-.246.71-1.492 1.162-2.77 1.146-3.24 3.894-8.987 5.816-12.162.89-1.47 2.616-4.587 3.836-6.927 1.22-2.34 2.646-4.914 3.17-5.719 1.068-1.643 1.765-2.955 5.227-9.839 1.328-2.639 2.639-5.023 2.913-5.297.274-.275.601-.93.726-1.457s.441-1.206.702-1.508c.429-.496 2.101-3.964 4.462-9.254.476-1.067 1.031-2.112 1.233-2.324.202-.211.826-1.429 1.387-2.707a266.946 266.946 0 0 1 1.85-4.111c1.378-2.964 3.724-8.696 3.724-9.097 0-.207.17-.376.378-.376s.288-.147.177-.327c-.112-.179-.072-.38.087-.446.246-.102 1.497-2.939 2.418-5.482.142-.393.618-1.68 1.056-2.86.439-1.18 1.402-3.834 2.142-5.898.739-2.064 1.478-3.925 1.643-4.135.662-.844 4.214-12.331 6.237-20.172.532-2.065 1.114-3.938 1.292-4.163.177-.225.298-.547.268-.715-.03-.168-.023-.386.015-.484.425-1.092 2.321-10.144 3.219-15.371 1.988-11.577 2.502-24.733 1.28-32.708-.937-6.112-3.686-15.166-4.83-15.907-.151-.098-.681-.983-1.178-1.966-2.008-3.979-7.613-10.321-11.372-12.868-.87-.589-1.662-1.152-1.76-1.252-1.267-1.281-6.154-3.703-10.014-4.962-12.4-4.045-27.158-1.838-34.175 5.11-.613.607-1.9 1.867-2.86 2.801-.959.934-2.545 3.105-3.523 4.826-.979 1.72-1.969 3.325-2.201 3.566-.74.771-2.954 8.147-3.699 12.325-1.373 7.704-1.434 12.864-.894 76.308.509 59.909.435 70.808-.549 81.081-.515 5.371-1.767 13.514-2.137 13.895-.167.171-.224.517-.128.768s.003.563-.207.692c-.21.13-.382.603-.382 1.051 0 .706-.532 2.674-2.184 8.08-1.207 3.95-4.179 11.081-4.617 11.081-.149 0-.521.626-.827 1.392-.705 1.762-5.316 9.051-6.921 10.941-1.703 2.004-1.636 1.909-3.523 5.039-.937 1.554-2.134 3.468-2.661 4.255-6.718 10.018-4.171 21.03 4.851 20.978 3.629-.021 5.562-1.404 8.592-6.144.565-.884 1.13-1.689 1.254-1.787.125-.098 1.056-1.707 2.069-3.575 1.014-1.867 2.003-3.637 2.199-3.932.196-.295.678-1.212 1.072-2.039.394-.827 1.09-1.953 1.548-2.503.457-.549 1.077-1.471 1.376-2.049.493-.951.569 1.936.811 30.6l.267 31.651 8.862.052 8.862.053.153-27.436c.163-29.283.292-31.499 2.045-35.299a71.252 71.252 0 0 0 1.45-3.492c.435-1.134 1.414-3.095 2.176-4.359.762-1.264 1.386-2.45 1.386-2.636 0-.412 6.418-6.848 8.4-8.422 2.531-2.012 12.678-6.813 12.696-6.008.003.138.123.077.268-.137.771-1.142 6.719-1.593 8.913-.677 5.618 2.348 6.741 7.183 7.259 31.271.183 8.553.509 16.998.723 18.767.215 1.77.414 3.499.444 3.843.03.344.141.625.247.625.106 0 .221.362.257.805.99 12.337 11.653 28.871 20.738 32.156.65.235 1.181.565 1.181.734 0 .168.15.214.333.101a.39.39 0 0 1 .535.122c1.222 1.977 14.476 2.769 19.865 1.187 1.474-.432 2.979-.861 3.343-.953.364-.091.846-.311 1.072-.489.226-.177 1.778-.93 3.449-1.673 8.439-3.751 22.816-16.474 29.848-26.416.393-.555 1.235-1.574 1.871-2.264 1.035-1.121 3.25-4.163 4.206-5.774 1.262-2.128 2.794-4.327 3.015-4.327.233 0 3.23-5.275 5.228-9.202l.772-1.516-.039 7.414c-.039 7.334.26 11.48.959 13.313.113.294.381 1.42.596 2.502.995 5.003 5.061 14.675 6.574 15.638.232.148.875.832 1.427 1.52 1.459 1.815 5.312 5.719 5.645 5.719.157 0 1.236.615 2.399 1.367 1.162.751 3.38 1.821 4.927 2.377 1.547.555 3.007 1.161 3.244 1.345.237.184.586.24.774.123.188-.116.397-.06.463.125.58 1.629 20.85 1.679 22.103.054.099-.127 1.627-.659 3.396-1.183 4.508-1.332 10.586-4.284 14.003-6.799 1.002-.737 1.929-1.341 2.061-1.341.764 0 10.93-8.297 12.589-10.275.329-.393.858.391 2.614 3.877 3.819 7.579 7.394 11.622 12.825 14.5a491.29 491.29 0 0 1 2.749 1.469c1.725.94 6.555 1.906 10.532 2.106 6.022.303 16.165-1.121 17.839-2.504.276-.228.555-.379.621-.335.136.089-.023.142 3.982-1.316 3.253-1.184 10.497-4.766 11.336-5.604.291-.292 1.296-1.054 2.232-1.694l3.379-2.313c1.932-1.325 9.924-9.149 10.888-10.658.356-.558 1.531-2.221 2.611-3.696 1.08-1.474 1.914-2.743 1.853-2.82-.061-.076.044-.237.233-.357.602-.384 3.699-6.88 4.958-10.402.669-1.87 1.318-3.642 1.442-3.937.125-.295.254-.616.288-.715.034-.098.162-.42.284-.714 2.369-5.72 4.178-26.141 3.104-35.041-.507-4.202-2.752-11.43-3.55-11.43-.14 0-.751-.767-1.36-1.706-5.286-8.158-14.596-10.581-20.226-5.263-.936.884-1.573 1.61-1.416 1.613.158.003.108.124-.11.268-5.006 3.32-4.417 31.18.805 38.039.9 1.181 3.754 7.398 3.939 8.579.309 1.975-2.784 10.936-4.173 12.09-.118.098-1.046 1.385-2.061 2.859-1.014 1.475-2.252 3.117-2.749 3.649-.498.532-.905 1.122-.905 1.31 0 .189-.684.877-1.519 1.53-.836.653-1.73 1.388-1.987 1.633-.256.246-1.463 1.206-2.68 2.133-1.218.928-2.295 1.775-2.393 1.883-.954 1.042-7.809 4.229-11.234 5.222-7.605 2.204-13.002 1.846-16.892-1.12-.626-.478-1.306-.869-1.511-.869-1.322 0-6.616-9.308-6.861-12.062-.013-.149-.191-.471-.395-.717-.204-.246-.23-.449-.059-.452.172-.003.129-.124-.095-.268-1.215-.785-4.326-19.816-4.669-28.56-.354-9.033.486-11.874 6.347-21.448 1.365-2.229 2.404-4.053 2.309-4.053-.21 0 3-5.469 3.358-5.719.274-.193 2.177-3.642 5.323-9.652 1.08-2.064 2.094-3.838 2.251-3.942.158-.104 1.773-3.241 3.59-6.97 1.817-3.73 3.474-6.9 3.682-7.045.233-.162.242-.267.021-.273-.197-.006-.169-.131.06-.277.401-.255 3.361-6.484 5.856-12.324.651-1.524 1.325-2.77 1.498-2.77.172 0 .214-.161.093-.358-.122-.196-.051-.357.157-.357.209 0 .379-.217.379-.481 0-.265.223-.949.496-1.52.583-1.219 2.451-5.73 4.352-10.51.743-1.868 1.583-3.758 1.867-4.201.284-.442.414-.804.288-.804-.125 0 .002-.362.283-.804.449-.708 3.659-9.777 5.409-15.282.343-1.081.842-2.368 1.108-2.859 1.173-2.17 6.252-20.273 7.095-25.291.14-.835.374-1.519.518-1.519.524 0 2.871-14.361 3.652-22.341.554-5.67.548-20.394-.011-25.559-.83-7.671-2.786-18.12-3.573-19.089-.176-.216-.674-1.599-1.107-3.074-.878-2.984-2.547-7.56-3.647-9.997a57.214 57.214 0 0 1-1.042-2.441c-.461-1.212-6.735-11.493-7.605-12.461a481.669 481.669 0 0 1-2.185-2.489c-10.689-12.239-24.053-18.135-35.61-15.709m10.28 18.482c1.977.739 4.41 2 4.776 2.473.098.128 1.063.955 2.145 1.839 4.186 3.423 7.281 7.382 10.006 12.8.642 1.276 1.289 2.401 1.439 2.499 1.339.883 5.599 14.925 6.939 22.878.083.491.18.974.217 1.072.036.098.034.562-.006 1.032-.039.469.087.951.279 1.072 1.166.73 1.24 26.838.078 27.563-.16.1-.289.664-.289 1.253 0 .59-.09 1.475-.201 1.966-.111.492-.375 2.02-.587 3.396-1.437 9.329-5.629 27.093-6.547 27.744-.169.12-.313.361-.32.536-.007.174-.154.69-.327 1.145-.173.455-.315 1.038-.315 1.295 0 .258-.253 1.172-.563 2.033-.31.86-.629 1.805-.709 2.1-.623 2.305-4.465 13.353-4.772 13.722-.213.257-1.013 2.141-1.778 4.186-2.797 7.476-4.634 12.019-6.275 15.515-2.041 4.35-2.5 5.359-3.173 6.97-1.13 2.706-3.632 8.053-3.847 8.222-.218.171-3.961 7.794-6.086 12.395-.561 1.215-1.183 2.309-1.384 2.433-.2.124-1.506 2.508-2.902 5.299-1.396 2.791-2.657 5.2-2.803 5.355-1.119 1.188-.872-82.704.336-114.133 1.284-33.383 3.714-61.067 5.63-64.13.135-.215.284-.553.331-.749 2.115-8.859 5.328-11.794 10.708-9.781M86.329 46.638c6.061 1.979 11.609 7.334 15.193 14.667.865 1.769 1.702 3.271 1.86 3.337.157.066.191.274.075.462-.117.189-.052.537.144.774.489.593 1.701 4.496 2.464 7.938.903 4.072.9 17.982-.004 23.592-.905 5.611-2.066 11.008-2.48 11.524-.195.243-.265.675-.156.96.109.285.077.568-.071.63-.148.062-.711 1.802-1.251 3.866-1.31 5.007-5.569 18.221-6.17 19.141-.263.403-.95 2.011-1.526 3.575-2.751 7.465-4.175 10.998-5.79 14.364-.964 2.011-1.753 3.781-1.753 3.932.001.151-.312.918-.696 1.705-1.568 3.214-4.667 10.396-4.667 10.813 0 .246-.12.447-.268.447-.147 0-.889 1.327-1.649 2.949-4.5 9.607-5.432 11.545-5.624 11.707-.118.098-1.793 3.395-3.722 7.328-1.93 3.932-3.683 7.267-3.897 7.411-.231.156-.244.267-.032.274.207.006.191.122-.037.274-.217.144-.653.745-.969 1.335-.686 1.282-.912-115.727-.241-125.031.381-5.286 1.255-11.378 1.772-12.352.174-.329.726-1.965 1.226-3.636 3.142-10.514 9.667-14.794 18.269-11.986" />
    <path fill="#ffffff"
      d="M79.974 29.212c.635.079 1.761.081 2.502.003.742-.077.223-.142-1.153-.143-1.377-.002-1.983.061-1.349.14m144.264 118.934c-5.055 2.353-9.022 9.798-9.515 17.855-.053.865-2.075-1.397-4.438-4.964-1.553-2.346-6.187-7.816-7.783-9.187-4.754-4.087-16.979-3.001-16.979 1.508 0 .366-.167.769-.371.895-.447.276-.39 5.89.06 5.89.171 0 .311.387.311.861 0 1.229 2.287 8.931 3.406 11.471 2.056 4.667 2.985 6.545 3.347 6.768.208.129.979 1.313 1.712 2.632 1.193 2.145 4.937 7.838 5.455 8.295.111.098 1.11 1.305 2.218 2.681 9.216 11.44 23.324 14.502 26.904 5.839.352-.852.852-2.049 1.11-2.66.648-1.531 2.795-10.434 3.87-16.048 2.203-11.505 2.669-25.874.95-29.311-1.743-3.484-5.965-4.524-10.257-2.525" />
  </g>
</svg>