<svg xmlns="http://www.w3.org/2000/svg" viewBox="0 0 400 234.667">
  <g fill-rule="evenodd">
    <path fill="#fcfcfc"
      d="m383.862 14.975-14.848 14.919V66.8c0 30.258.056 36.927.308 37.024.517.198 1.57-.102 1.57-.448 0-.178.158-.324.352-.324a.353.353 0 0 0 .352-.352c0-.194.159-.353.352-.353a.353.353 0 0 0 .352-.352c0-.193.159-.352.353-.352a.353.353 0 0 0 .352-.352c0-.194.113-.352.252-.352.329 0 1.626-1.297 1.626-1.625 0-.139.158-.253.352-.253a.353.353 0 0 0 .352-.352c0-.194.158-.352.352-.352a.353.353 0 0 0 .352-.352c0-.194.159-.352.352-.352a.353.353 0 0 0 .352-.353c0-.193.159-.352.352-.352a.353.353 0 0 0 .353-.352c0-.193.113-.352.252-.352.329 0 1.625-1.296 1.625-1.625 0-.139.159-.253.353-.253a.353.353 0 0 0 .352-.352c0-.194.158-.352.352-.352a.353.353 0 0 0 .352-.352c0-.194.158-.352.352-.352a.353.353 0 0 0 .352-.352c0-.194.114-.352.253-.352.328 0 1.625-1.297 1.625-1.626 0-.139.159-.252.352-.252a.353.353 0 0 0 .352-.353c0-.193.159-.352.352-.352a.353.353 0 0 0 .353-.352c0-.193.158-.352.352-.352a.353.353 0 0 0 .352-.352c0-.194.114-.352.253-.352.328 0 1.625-1.297 1.625-1.625 0-.139.158-.253.352-.253a.353.353 0 0 0 .352-.352c0-.194.158-.352.352-.352a.353.353 0 0 0 .352-.352c0-.194.159-.352.352-.352a.353.353 0 0 0 .352-.353c0-.193.114-.352.253-.352.329 0 1.625-1.296 1.625-1.625 0-.139.159-.253.352-.253a.353.353 0 0 0 .353-.352c0-.193.158-.352.352-.352a.353.353 0 0 0 .352-.352c0-.194.158-.352.352-.352a.353.353 0 0 0 .352-.352c0-.194.158-.352.352-.352a.353.353 0 0 0 .352-.352c0-.194.114-.353.253-.353.329 0 1.625-1.296 1.625-1.625 0-.139.159-.252.352-.252a.353.353 0 0 0 .352-.353c0-.193.159-.352.352-.352a.353.353 0 0 0 .353-.352c0-.193.158-.352.352-.352a.353.353 0 0 0 .352-.352c0-.194.12-.352.266-.352.147 0 .517-.27.822-.599l.555-.599V0l-.646.028c-.527.022-3.368 2.763-15.492 14.947m-297.477 55.8c0 .193-.12.352-.267.352-.146 0-.511.264-.81.587-.299.322-.654.586-.79.586a.247.247 0 0 0-.246.246c0 .136-.264.491-.587.79-.322.299-.586.664-.586.811 0 .146-.159.266-.353.266a.354.354 0 0 0-.352.352c0 .194-.12.352-.266.352-.147 0-.511.264-.811.587-.299.323-.654.587-.789.587a.246.246 0 0 0-.246.246c0 .135-.264.491-.587.79-.323.299-.587.664-.587.81 0 .147-.158.267-.352.267a.353.353 0 0 0-.352.352.353.353 0 0 1-.352.352.353.353 0 0 0-.352.352.353.353 0 0 1-.353.352c-.193 0-.352.106-.352.235s-.158.235-.352.235a.353.353 0 0 0-.352.352.353.353 0 0 1-.352.352.353.353 0 0 0-.352.352c0 .194-.106.352-.235.352s-.235.159-.235.352a.353.353 0 0 1-.352.352.354.354 0 0 0-.352.352.353.353 0 0 1-.352.353.353.353 0 0 0-.352.352c0 .193-.12.352-.267.352-.146 0-.511.264-.81.587-.299.322-.655.587-.79.587a.246.246 0 0 0-.246.245c0 .136-.264.491-.587.79-.322.299-.586.664-.586.811 0 .146-.159.266-.353.266a.354.354 0 0 0-.352.352c0 .194-.104.352-.232.352-1.261 0-1.176-2.822-1.176 39.02v38.21h64.789v-18.544H88.263V70.423h-.939c-.678 0-.939.097-.939.352m50.704 25.774c0 15.622.087 26.217.217 26.35.119.123.251 1.957.293 4.077.056 2.818.156 3.88.37 3.951.195.065.294.609.294 1.612 0 1.129.089 1.548.352 1.648.253.098.352.494.352 1.409s.099 1.311.352 1.408c.23.088.352.454.352 1.049 0 .656.1.914.352.914.255 0 .353.262.353.946 0 .625.119.993.352 1.082.193.074.352.377.352.672 0 .295.158.597.352.671.221.085.352.444.352.964 0 .456.106.829.235.829s.235.2.235.445c0 .244.158.505.352.579.193.075.352.353.352.62 0 .266.158.545.352.619.194.074.352.388.352.697 0 .323.139.562.327.562.179 0 .393.264.474.586.081.323.251.587.377.587.127 0 .23.212.23.47 0 .261.157.469.353.469.193 0 .352.186.352.413 0 .228.264.698.587 1.047.322.348.586.743.586.877 0 .135.159.245.352.245.194 0 .353.159.353.353 0 .193.158.352.352.352.193 0 .352.158.352.352 0 .193.158.352.352.352.194 0 .352.158.352.352 0 .194.113.352.252.352.325 0 .922.597.922.922 0 .139.158.252.352.252.194 0 .352.158.352.352 0 .194.158.352.352.352.194 0 .352.158.352.352 0 .194.159.352.352.352.194 0 .352.159.352.352 0 .194.159.352.353.352.193 0 .354.08.358.177.003.096.426.435.939.751.513.316.933.66.933.763 0 .103.211.187.469.187s.47.104.47.231c0 .126.264.296.586.377.323.081.587.295.587.474 0 .207.259.327.704.327.47 0 .705.117.705.352 0 .219.221.352.587.352.365 0 .586.133.586.352 0 .232.232.352.68.352.387 0 .737.152.814.352.074.194.402.353.729.353.327 0 .594.105.594.234s.359.235.797.235c.491 0 .848.135.931.352.078.202.428.352.822.352.394 0 .744.15.822.352.094.247.48.352 1.291.352.811 0 1.196.106 1.291.353.102.266.532.352 1.757.352 1.155 0 1.706.101 1.914.352.248.299 1.411.352 7.782.352 6.442 0 7.51-.049 7.626-.352.102-.266.532-.352 1.76-.352 1.229 0 1.659-.086 1.761-.352.097-.253.492-.353 1.401-.353.969 0 1.266-.082 1.266-.352 0-.254.261-.352.939-.352.678 0 .939-.098.939-.352 0-.233.233-.352.69-.352.38 0 .756-.106.836-.235.08-.129.395-.234.701-.234.306 0 .697-.133.87-.294.173-.161.735-.504 1.249-.762.515-.258 1.075-.601 1.246-.763.17-.162.514-.294.763-.294s.452-.159.452-.352c0-.219.222-.352.587-.352s.587-.133.587-.352c0-.194.159-.353.352-.353.194 0 .352-.094.352-.209 0-.115.246-.271.547-.346.3-.076.834-.404 1.186-.73.351-.326.739-.593.862-.593.122 0 .222-.158.222-.352 0-.193.159-.352.352-.352a.353.353 0 0 0 .352-.352c0-.194.106-.352.235-.352s.235-.158.235-.352c0-.194.158-.352.352-.352a.353.353 0 0 0 .352-.352c0-.194.159-.352.352-.352.194 0 .352-.106.352-.235s.159-.235.353-.235a.353.353 0 0 0 .352-.352c0-.194.158-.352.352-.352a.354.354 0 0 0 .352-.352c0-.194.158-.352.352-.352a.353.353 0 0 0 .352-.352c0-.194.081-.353.179-.353.179 0 .603-.695.895-1.467.085-.226.301-.411.479-.411a.327.327 0 0 0 .325-.327c0-.179.158-.387.352-.462.194-.074.352-.402.352-.729 0-.372.132-.594.352-.594a.353.353 0 0 0 .352-.352c0-.194.104-.352.231-.352.126 0 .303-.29.391-.644.089-.353.303-.783.474-.955.172-.172.313-.464.313-.648 0-.185.106-.336.235-.336s.234-.316.234-.704c0-.469.118-.704.353-.704.231 0 .352-.232.352-.676 0-.371.158-.806.352-.967.193-.161.352-.596.352-.968 0-.444.121-.675.352-.675.261 0 .352-.274.352-1.057 0-.782.091-1.056.352-1.056.249 0 .354-.258.36-.88.004-.485.162-1.086.352-1.336.191-.252.345-.954.345-1.571 0-.613.105-1.18.234-1.26.129-.08.235-.987.235-2.017 0-1.447.08-1.902.352-2.006.311-.119.352-3.609.352-29.453V70.423H202.347v26.614c0 23.371-.042 26.65-.352 26.907-.27.224-.352.838-.352 2.627 0 1.763-.086 2.422-.352 2.688-.232.232-.352.817-.352 1.719 0 .998-.095 1.403-.352 1.501-.194.075-.352.403-.352.73 0 .326-.106.594-.235.594s-.235.271-.235.603c0 .332-.158.763-.352.956-.194.194-.352.662-.352 1.04 0 .454-.119.687-.352.687a.353.353 0 0 0-.352.352.353.353 0 0 1-.352.352c-.219 0-.352.222-.352.587s-.133.587-.353.587c-.193 0-.352.12-.352.267 0 .146-.264.511-.586.81-.323.299-.587.655-.587.79s-.159.246-.352.246a.353.353 0 0 0-.353.352.353.353 0 0 1-.352.352.353.353 0 0 0-.352.352c0 .194-.12.352-.266.352-.147 0-.512.264-.811.587-.299.323-.71.587-.914.587a.586.586 0 0 0-.506.352c-.074.194-.269.352-.433.352-.164 0-.43.159-.591.352-.161.194-.49.352-.733.352-.242 0-.441.159-.441.353 0 .254-.26.352-.939.352-.678 0-.939.097-.939.352 0 .261-.273.352-1.056.352-.581 0-1.056.094-1.056.208 0 .114-1.128.25-2.507.301-1.69.062-2.537.186-2.601.379-.133.398-1.743.358-2.553-.065-.427-.223-1.337-.351-2.492-.352-1.055-.001-1.819-.1-1.819-.236 0-.129-.475-.235-1.056-.235-.783 0-1.057-.091-1.057-.352 0-.255-.261-.352-.939-.352-.678 0-.939-.098-.939-.352 0-.196-.208-.353-.469-.353-.258 0-.47-.103-.47-.23 0-.126-.264-.296-.587-.377-.322-.081-.586-.295-.586-.474 0-.18-.217-.327-.481-.327s-.725-.264-1.025-.587c-.299-.323-.663-.587-.81-.587-.147 0-.267-.158-.267-.352a.353.353 0 0 0-.352-.352.353.353 0 0 1-.352-.352.353.353 0 0 0-.352-.352.353.353 0 0 1-.352-.352.353.353 0 0 0-.352-.352c-.194 0-.352-.111-.352-.246 0-.136-.25-.479-.554-.763-.305-.285-.629-.755-.72-1.045-.092-.291-.265-.529-.385-.529-.121 0-.219-.158-.219-.352a.354.354 0 0 0-.352-.352c-.221 0-.352-.222-.352-.594 0-.327-.159-.655-.352-.729-.194-.075-.353-.392-.353-.705 0-.313-.158-.629-.352-.704-.218-.084-.352-.441-.352-.939 0-.498-.134-.855-.352-.939-.229-.088-.352-.453-.352-1.049 0-.502-.106-.914-.235-.914s-.235-.584-.235-1.298c0-.938-.097-1.336-.352-1.434-.31-.119-.352-3.531-.352-28.748V70.423H137.089v26.126m96.537 21.115.059 47.242 9.684.061 9.683.062v-30.05c0-26.554.041-30.049.352-30.049.234 0 .352.234.352.704 0 .387.103.704.23.704s.297.264.378.587c.081.323.241.587.356.587.115 0 .21.145.21.323 0 .178.158.455.352.616.193.16.352.49.352.733 0 .242.158.44.352.44.235 0 .352.235.352.705 0 .469.117.704.352.704.215 0 .352.219.352.562 0 .309.159.622.352.696.194.075.352.286.352.47s.159.395.353.469c.193.075.352.35.352.612 0 .263.105.477.234.477.13 0 .235.268.235.594 0 .327.159.655.352.73.194.074.352.388.352.697 0 .342.138.561.353.561.193 0 .352.199.352.441 0 .243.158.572.352.733.193.161.352.438.352.616s.158.323.352.323c.235 0 .352.235.352.704 0 .47.117.705.352.705.219 0 .352.221.352.586 0 .323.098.587.216.587.119 0 .286.317.371.704.085.388.252.705.371.705s.216.147.216.327c0 .18.158.387.352.462.194.074.352.353.352.619s.159.545.352.619c.194.075.352.388.352.697 0 .343.138.562.353.562.234 0 .352.235.352.704 0 .47.117.705.352.705.193 0 .352.159.352.355 0 .449.496 1.347.88 1.593.162.103.294.446.294.763 0 .355.135.575.352.575.22 0 .352.222.352.594 0 .327.158.655.352.729.194.075.352.339.352.587 0 .249.159.513.352.587.194.075.352.27.352.434 0 .164.159.429.352.59.194.161.353.491.353.733s.097.441.216.441c.118 0 .285.317.37.704.085.387.241.704.346.704.105 0 .257.264.338.587.081.323.251.587.377.587.127 0 .23.113.23.251 0 .139.159.41.353.604.193.194.352.556.352.805s.158.453.352.453c.235 0 .352.234.352.704 0 .469.117.704.352.704.219 0 .352.222.352.587s.133.587.352.587c.219 0 .352.221.352.587 0 .322.106.586.235.586s.235.212.235.47c0 .261.156.469.352.469.22 0 .352.223.352.595 0 .326.159.655.352.729.194.074.352.388.352.697 0 .343.138.562.352.562.221 0 .353.222.353.594 0 .327.158.655.352.729.193.074.352.286.352.47s.158.395.352.469c.194.074.352.335.352.58 0 .244.092.444.205.444.113 0 .269.317.347.704.214 1.074 2.03.675 2.03-.447 0-.114.159-.268.352-.342a.59.59 0 0 0 .352-.511c0-.207.159-.535.352-.729.194-.193.353-.555.353-.804s.105-.453.234-.453.235-.159.235-.352c0-.194.159-.352.352-.352.22 0 .352-.223.352-.595 0-.326.159-.655.352-.729.194-.074.353-.388.353-.697 0-.309.132-.563.293-.564.161-.002.503-.451.759-.998.256-.547.6-1.079.763-1.183.164-.103.297-.393.297-.645s.106-.458.235-.458.235-.2.235-.444c0-.245.158-.506.352-.58.193-.074.352-.35.352-.612 0-.267.155-.477.352-.477.235 0 .352-.234.352-.704 0-.469.118-.704.352-.704.198 0 .352-.21.352-.477 0-.262.159-.538.352-.612.194-.074.353-.237.353-.361 0-.125.158-.385.352-.579.193-.194.352-.556.352-.805s.105-.452.235-.452c.129 0 .234-.215.234-.477 0-.263.159-.538.352-.612.194-.075.353-.271.353-.437 0-.166.158-.363.352-.437.193-.075.352-.403.352-.73 0-.371.132-.594.352-.594.235 0 .352-.235.352-.704 0-.47.117-.704.352-.704a.353.353 0 0 0 .352-.352c0-.194.104-.353.23-.353.127 0 .297-.264.378-.586.081-.323.233-.587.338-.587.105 0 .26-.317.345-.704.085-.388.252-.705.371-.705s.216-.147.216-.327c0-.18.159-.387.352-.462.194-.074.352-.338.352-.587 0-.248.159-.512.352-.587.194-.074.353-.402.353-.729 0-.327.132-.595.293-.597.161-.001.504-.45.761-.997.258-.548.601-1.135.763-1.306.162-.17.295-.461.295-.645 0-.185.106-.335.235-.335s.235-.212.235-.47.103-.469.23-.469.297-.265.378-.587c.081-.323.294-.587.474-.587.188 0 .326-.239.326-.562 0-.309.159-.622.352-.697.194-.074.352-.353.352-.619s.159-.545.353-.619c.193-.075.352-.283.352-.463 0-.179.097-.327.216-.327s.285-.316.37-.704c.086-.387.252-.704.371-.704s.216-.215.216-.477.159-.537.352-.612c.194-.074.353-.271.353-.437 0-.166.158-.362.352-.437.193-.074.352-.402.352-.729 0-.372.132-.594.352-.594.235 0 .352-.235.352-.705 0-.469.117-.704.352-.704a.353.353 0 0 0 .352-.352c0-.194.104-.352.231-.352.126 0 .296-.264.377-.587.081-.323.242-.587.357-.587.115 0 .209-.317.209-.704 0-.469.117-.704.352-.704.194 0 .352-.147.352-.327 0-.18.159-.388.352-.462.312-.12.352 3.312.352 30.022v30.156h.705c.469 0 .704-.117.704-.352 0-.193.158-.352.352-.352.194 0 .352-.14.352-.312s.264-.454.587-.627c.323-.172.587-.454.587-.626s.158-.313.352-.313a.353.353 0 0 0 .352-.352c0-.193.158-.352.352-.352a.353.353 0 0 0 .352-.352c0-.194.159-.352.352-.352a.353.353 0 0 0 .352-.352c0-.194.159-.352.353-.352a.354.354 0 0 0 .352-.352c0-.194.113-.353.251-.353.325 0 .922-.597.922-.922 0-.138.159-.251.353-.251a.354.354 0 0 0 .352-.352c0-.194.158-.353.352-.353a.353.353 0 0 0 .352-.352c0-.193.158-.352.352-.352a.353.353 0 0 0 .352-.352c0-.194.159-.352.352-.352a.353.353 0 0 0 .352-.352c0-.194.159-.352.352-.352.194 0 .353-.113.353-.252 0-.325.597-.922.922-.922.138 0 .251-.158.251-.352 0-.194.159-.352.352-.352a.353.353 0 0 0 .352-.352c0-.194.159-.352.353-.352a.354.354 0 0 0 .352-.352c0-.194.158-.353.352-.353a.353.353 0 0 0 .352-.352c0-.193.158-.352.352-.352.194 0 .352-.113.352-.251 0-.325.597-.923.922-.923.139 0 .252-.158.252-.352 0-.193.158-.352.352-.352a.353.353 0 0 0 .352-.352c0-.194.159-.352.352-.352a.353.353 0 0 0 .352-.352c0-.194.159-.352.352-.352a.354.354 0 0 0 .353-.352c0-.194.158-.352.352-.352.311 0 .352-4.447.352-38.615V70.423h-10.681c-10.579 0-10.681.004-10.681.476 0 .263-.158.538-.352.612-.194.075-.352.271-.352.437 0 .166-.158.363-.352.437-.194.075-.352.403-.352.73 0 .371-.132.594-.352.594-.221 0-.352.223-.352.598 0 .336-.257.836-.587 1.142-.323.299-.587.769-.587 1.045 0 .289-.149.501-.352.501-.235 0-.352.235-.352.705 0 .469-.118.704-.352.704-.194 0-.353.169-.353.377 0 .207-.316.777-.704 1.266-.387.489-.704 1.047-.704 1.241 0 .194-.158.413-.352.487-.194.074-.352.403-.352.729 0 .327-.106.595-.235.595s-.235.158-.235.352a.353.353 0 0 1-.352.352c-.219 0-.352.222-.352.587s-.133.587-.352.587c-.235 0-.352.234-.352.704 0 .469-.118.704-.352.704-.196 0-.352.209-.352.469 0 .259-.099.47-.219.47-.121 0-.293.233-.383.517-.091.285-.309.662-.486.839-.176.176-.321.472-.321.656 0 .184-.106.335-.235.335s-.234.317-.234.705c0 .469-.118.704-.352.704a.353.353 0 0 0-.353.352.353.353 0 0 1-.352.352c-.215 0-.352.219-.352.562 0 .309-.158.622-.352.697-.194.074-.352.402-.352.729 0 .372-.132.594-.352.594-.196 0-.352.209-.352.47 0 .258-.104.469-.231.469-.126 0-.296.264-.377.587-.081.323-.242.587-.357.587-.115 0-.209.264-.209.587 0 .365-.133.587-.352.587-.194 0-.352.198-.352.44 0 .243-.159.573-.352.733-.194.161-.352.427-.352.591 0 .164-.159.359-.353.433-.193.074-.352.339-.352.587 0 .248-.158.513-.352.587-.193.074-.352.402-.352.729 0 .372-.132.594-.352.594-.196 0-.352.209-.352.47 0 .258-.094.469-.209.469-.115 0-.276.264-.357.587-.081.323-.251.587-.378.587-.126 0-.23.264-.23.587 0 .365-.133.587-.352.587-.22 0-.352.222-.352.594 0 .327-.158.655-.352.729-.194.075-.352.271-.352.437 0 .166-.159.363-.352.437-.194.075-.352.403-.352.73 0 .371-.132.594-.353.594-.214 0-.352.219-.352.562 0 .309-.158.622-.352.697a.578.578 0 0 0-.352.494c0 .198-.106.36-.235.36s-.234.264-.234.586c0 .366-.133.587-.353.587-.214 0-.352.219-.352.562 0 .309-.15.619-.334.69-.183.07-.368.372-.41.671-.121.848-1.368.922-1.368.081 0-.336-.159-.671-.352-.745-.194-.074-.353-.34-.353-.59 0-.25-.264-.739-.586-1.087-.323-.348-.587-.822-.587-1.054 0-.231-.159-.481-.352-.555-.194-.075-.352-.388-.352-.697 0-.343-.138-.562-.353-.562-.234 0-.352-.235-.352-.704 0-.47-.117-.705-.352-.705-.193 0-.352-.198-.352-.44 0-.243-.158-.573-.352-.733-.194-.161-.352-.427-.352-.591 0-.164-.159-.359-.352-.433-.194-.074-.352-.35-.352-.612s-.106-.477-.235-.477-.235-.267-.235-.594c0-.327-.158-.655-.352-.729-.194-.075-.352-.392-.352-.705 0-.313-.149-.626-.331-.696-.182-.07-.395-.383-.474-.697-.079-.313-.247-.57-.373-.57-.127 0-.231-.158-.231-.352a.353.353 0 0 0-.352-.352c-.234 0-.352-.234-.352-.704 0-.469-.117-.704-.352-.704-.194 0-.352-.203-.352-.451 0-.482-.706-1.963-.998-2.092-.096-.043-.176-.217-.176-.386s-.158-.368-.352-.442c-.193-.075-.352-.403-.352-.73 0-.372-.132-.594-.352-.594-.219 0-.352-.222-.352-.587s-.133-.587-.352-.587c-.235 0-.352-.234-.352-.704 0-.469-.118-.704-.352-.704-.205 0-.353-.213-.353-.506 0-.279-.264-.852-.586-1.276-.323-.423-.587-.935-.587-1.137a.362.362 0 0 0-.352-.368c-.235 0-.353-.234-.353-.704 0-.469-.117-.704-.352-.704-.22 0-.352-.223-.352-.594 0-.327-.158-.655-.352-.73-.194-.074-.352-.338-.352-.586 0-.249-.158-.513-.352-.587-.194-.075-.352-.283-.352-.462 0-.18-.106-.327-.235-.327s-.235-.204-.235-.453c0-.249-.158-.611-.352-.805a1.384 1.384 0 0 1-.352-.846c0-.271-.158-.554-.352-.628-.194-.075-.352-.339-.352-.587 0-.249-.149-.509-.331-.579-.182-.07-.395-.383-.474-.697-.079-.313-.247-.57-.373-.57-.127 0-.231-.211-.231-.469 0-.261-.156-.47-.352-.47-.22 0-.352-.222-.352-.594 0-.327-.158-.655-.352-.729-.194-.075-.352-.388-.352-.697 0-.309-.079-.563-.176-.564-.097-.001-.383-.474-.637-1.05-.253-.577-.597-1.101-.763-1.165-.166-.063-.302-.33-.302-.592 0-.268-.155-.477-.352-.477a.353.353 0 0 1-.352-.352c0-.308-1.383-.352-11.034-.352h-11.033l.059 47.241m-27.053 57.101c-.194.233-.719.352-1.555.352-.965 0-1.262.083-1.262.352 0 .255-.261.353-.939.353-.517 0-.939.093-.939.207 0 .114-.185.275-.411.358-.799.293-1.702.872-1.702 1.091 0 .122-.158.222-.352.222a.353.353 0 0 0-.352.352.353.353 0 0 1-.352.352.353.353 0 0 0-.352.352.353.353 0 0 1-.352.352.353.353 0 0 0-.352.352c0 .194-.099.352-.219.352-.121 0-.293.233-.383.517-.091.285-.309.662-.486.839a1.264 1.264 0 0 0-.321.774c0 .249-.106.452-.235.452s-.234.585-.234 1.299c0 .937-.098 1.336-.352 1.433-.281.108-.353.611-.353 2.465 0 1.854.072 2.357.353 2.465.238.091.352.465.352 1.152 0 .56.105 1.083.234 1.163.129.08.235.403.235.718 0 .353.135.573.352.573.235 0 .352.235.352.704 0 .47.118.704.352.704.194 0 .353.159.353.353 0 .193.158.352.352.352.193 0 .352.149.352.332 0 .183.317.473.704.644.387.172.704.391.704.487 0 .368.828 1.119 1.234 1.119.233 0 .485.158.559.352.075.194.29.352.479.352s.502.158.696.352c.194.194.701.352 1.128.352.427 0 .908.159 1.069.352.419.506 6.271.512 6.938.008.251-.19.704-.348 1.007-.352.617-.009 1.932-.674 2.219-1.123.103-.161.37-.293.593-.293.391 0 1.214-.759 1.214-1.119 0-.096.317-.315.705-.487.387-.171.704-.461.704-.644s.158-.332.352-.332a.353.353 0 0 0 .352-.352c0-.194.159-.353.352-.353.22 0 .352-.222.352-.594 0-.327.159-.655.352-.729.194-.074.353-.329.353-.566 0-.237.105-.496.234-.575.129-.08.235-.615.235-1.188 0-.77.092-1.042.352-1.042.294 0 .352-.483.352-2.935 0-2.451-.058-2.934-.352-2.934-.261 0-.352-.274-.352-1.056 0-.581-.106-1.057-.235-1.057s-.234-.203-.234-.452-.159-.612-.353-.805c-.193-.194-.352-.522-.352-.729a.591.591 0 0 0-.352-.511c-.193-.074-.352-.282-.352-.462 0-.18-.158-.327-.352-.327a.353.353 0 0 1-.352-.352.353.353 0 0 0-.352-.352.353.353 0 0 1-.352-.352.353.353 0 0 0-.352-.352c-.194 0-.353-.097-.353-.215 0-.346-2.303-1.663-2.909-1.663-.305 0-.686-.159-.846-.353-.193-.231-.717-.352-1.53-.352-.883 0-1.276-.1-1.372-.352-.102-.266-.532-.352-1.757-.352-1.155 0-1.706.101-1.914.352m28.019 0c-.099.257-.504.352-1.502.352-.901 0-1.486.12-1.718.352-.194.194-.624.353-.956.353-.332 0-.604.097-.604.216s-.317.285-.704.37c-.387.086-.704.252-.704.371s-.159.216-.352.216a.353.353 0 0 0-.352.352.354.354 0 0 1-.353.353.353.353 0 0 0-.352.352.353.353 0 0 1-.352.352.353.353 0 0 0-.352.352.353.353 0 0 1-.352.352.353.353 0 0 0-.352.352c0 .194-.106.352-.235.352s-.235.264-.235.587c0 .365-.133.587-.352.587-.193 0-.352.145-.352.323 0 .178-.158.455-.352.616-.194.161-.352.638-.352 1.06 0 .466-.139.821-.352.903-.292.112-.352.743-.352 3.663 0 2.98.054 3.529.352 3.529.254 0 .352.261.352.939 0 .678.098.939.352.939.235 0 .352.234.352.704 0 .405.125.705.294.707.161.001.495.424.742.939.246.515.537.936.645.936.108 0 .197.159.197.352 0 .194.162.352.36.352a.58.58 0 0 1 .494.352c.074.194.388.353.697.353.343 0 .562.137.562.352 0 .193.158.352.352.352.194 0 .352.158.352.352 0 .215.219.352.562.352.309 0 .622.158.697.352.088.231.454.352 1.061.352.533 0 .969.125 1.025.294.162.487 7.04.556 7.44.075.168-.203.552-.369.854-.369.726 0 2.198-.744 2.205-1.115.003-.168.306-.293.71-.293.469 0 .704-.118.704-.352 0-.194.159-.352.352-.352.194 0 .352-.141.352-.313 0-.172.265-.454.587-.626.323-.173.587-.455.587-.627s.159-.312.352-.312c.301 0 .352-.678.352-4.695v-4.695H236.385v5.399h2.347c2.225 0 2.348.026 2.348.491 0 .556-.856 1.367-1.456 1.379-.219.004-.49.171-.601.37-.163.291-.7.362-2.755.362-2.056 0-2.592-.071-2.755-.362-.112-.199-.361-.362-.555-.362-.193 0-.596-.264-.895-.587-.299-.323-.664-.587-.811-.587-.146 0-.266-.158-.266-.352a.353.353 0 0 0-.352-.352.353.353 0 0 1-.352-.352.353.353 0 0 0-.352-.352c-.235 0-.353-.235-.353-.704 0-.388-.105-.705-.234-.705-.138 0-.235-.817-.235-1.981 0-1.09.106-2.047.235-2.127.129-.079.234-.403.234-.718 0-.353.136-.573.353-.573.219 0 .352-.221.352-.587 0-.365.133-.586.352-.586a.354.354 0 0 0 .352-.353c0-.193.147-.352.327-.352.18 0 .388-.158.462-.352.074-.193.338-.352.587-.352.248 0 .512-.158.587-.352.074-.194.389-.352.7-.352.311 0 .697-.159.858-.352.211-.254.768-.352 1.999-.352 1.301 0 1.739.083 1.842.352.074.193.391.352.704.352.313 0 .63.158.704.352.075.194.403.352.73.352.371 0 .594.132.594.352 0 .194.158.352.352.352.194 0 .352.105.352.232 0 .84 1.519 1.539 1.793.825.074-.194.282-.352.462-.352.18 0 .327-.159.327-.353 0-.193.159-.352.352-.352.194 0 .352-.11.352-.246 0-.135.265-.49.587-.789.323-.3.587-.653.587-.786 0-.132.159-.302.352-.376a.584.584 0 0 0 .352-.502.583.583 0 0 0-.352-.502c-.193-.074-.352-.282-.352-.462 0-.18-.158-.327-.352-.327-.194 0-.352-.105-.352-.232 0-.417-.799-1.177-1.237-1.177-.236 0-.673-.264-.973-.587-.388-.418-.788-.586-1.397-.586-.602 0-.853-.104-.853-.353 0-.276-.323-.352-1.497-.352-1.045 0-1.586-.106-1.79-.352-.199-.24-.732-.352-1.679-.352-1.016 0-1.423.094-1.522.352m30.113 0c-.221.221-.798.352-1.55.352-.848 0-1.237.103-1.333.352-.074.194-.282.353-.462.353-.18 0-.327.097-.327.216s-.306.283-.68.365c-.375.082-.749.328-.832.547-.292.766-.714 1.454-.891 1.454-.099 0-.179.475-.179 1.056 0 .783-.092 1.056-.352 1.056-.279 0-.353.336-.353 1.615 0 1.149.102 1.699.353 1.907.193.16.352.527.352.814 0 1.232 1.57 3.266 2.751 3.562.294.074.535.229.535.344 0 .115.253.209.562.209.309 0 .622.159.697.352.074.194.391.352.704.352.313 0 .63.159.704.352.089.233.457.353 1.082.353.684 0 .946.097.946.352 0 .219.222.352.587.352s.587.133.587.352c0 .194.104.352.232.352.127 0 .444.182.704.404.556.477.638 1.474.12 1.474a.353.353 0 0 0-.352.352c0 .219-.222.352-.587.352s-.587.133-.587.352c0 .196-.209.352-.469.352-.261 0-.47-.156-.47-.352 0-.27-.3-.352-1.291-.352-.991 0-1.291-.082-1.291-.352 0-.196-.209-.352-.469-.352-.259 0-.47-.084-.47-.186 0-.45-1.663-.95-2.213-.664-.69.358-2.012 1.676-2.012 2.006 0 .139-.159.252-.352.252a.354.354 0 0 0-.353.353.353.353 0 0 1-.352.352c-.254 0-.352.26-.352.939 0 .886.039.939.704.939.388 0 .705.104.705.232 0 .449.814 1.176 1.318 1.176.28 0 .57.158.645.352.085.223.445.352.98.352.466 0 1.005.159 1.198.352.279.279 1.025.352 3.593.352 2.595 0 3.299-.07 3.533-.352.161-.193.6-.352.975-.352.391 0 .741-.151.818-.352.075-.194.271-.352.437-.352.166 0 .363-.158.437-.352.075-.194.353-.352.618-.352.349 0 .522-.196.624-.704.077-.388.248-.705.379-.705.674 0 .862-.875.869-4.049.005-2-.082-3.228-.227-3.228-.129 0-.235-.214-.235-.476 0-.263-.158-.538-.352-.612-.194-.075-.352-.283-.352-.463 0-.179-.159-.327-.352-.327a.353.353 0 0 1-.352-.352c0-.193-.146-.352-.324-.352-.178 0-.455-.158-.615-.352-.161-.194-.48-.352-.708-.352-.229 0-.477-.158-.551-.352-.074-.194-.357-.352-.629-.352a1.38 1.38 0 0 1-.845-.352c-.194-.194-.662-.352-1.04-.352s-.687-.106-.687-.235-.317-.235-.705-.235c-.469 0-.704-.117-.704-.352 0-.219-.222-.352-.587-.352s-.587-.133-.587-.352a.353.353 0 0 0-.352-.352.354.354 0 0 1-.352-.353.353.353 0 0 0-.352-.352.353.353 0 0 1 0-.704.353.353 0 0 0 .352-.352c0-.194.159-.352.352-.352a.353.353 0 0 0 .352-.352c0-.28.34-.352 1.644-.352 1.304 0 1.643.072 1.643.352 0 .235.235.352.704.352.47 0 .704.117.704.352 0 .813 1.755.428 2.672-.587.466-.516.954-.939 1.084-.939.129 0 .235-.158.235-.352 0-.194.146-.352.325-.352.188 0 .374-.323.439-.763.126-.849.003-1.35-.331-1.35-.121 0-.466-.264-.765-.587-.315-.339-.804-.586-1.162-.586-.394 0-.619-.129-.619-.353 0-.273-.31-.352-1.383-.352-1.013 0-1.42-.094-1.519-.352-.103-.269-.546-.352-1.886-.352-1.243 0-1.853.102-2.103.352m51.492 0c-.199.241-.733.352-1.679.352-1.017 0-1.423.094-1.522.352-.075.194-.388.353-.697.353-.309 0-.562.105-.562.234s-.259.235-.575.235c-.316 0-.66.132-.763.294-.22.343-.953.835-1.537 1.031-.226.076-.411.284-.411.463a.326.326 0 0 1-.325.325c-.179 0-.393.185-.475.411-.293.798-.872 1.701-1.091 1.701-.122 0-.222.215-.222.477 0 .263-.158.538-.352.612-.196.076-.352.425-.352.789 0 .365-.156.714-.352.789-.264.102-.352.523-.352 1.669 0 .865-.103 1.533-.235 1.533-.129 0-.235.528-.235 1.174 0 .645.106 1.173.235 1.173.132 0 .235.66.235 1.509 0 1.029.112 1.622.352 1.862.193.193.352.623.352.955 0 .38.13.604.352.604.22 0 .352.222.352.594 0 .327.158.655.352.73.194.074.352.282.352.462 0 .179.159.327.352.327.194 0 .352.158.352.352 0 .193.114.352.252.352.325 0 .922.597.922.922 0 .138.147.252.327.252.18 0 .388.158.462.352.075.193.403.352.73.352.371 0 .594.132.594.352 0 .235.235.352.704.352.47 0 .704.117.704.352 0 .253.258.352.914.352.596 0 .961.123 1.049.352.112.292.744.352 3.664.352 2.98 0 3.528-.054 3.528-.352 0-.254.262-.352.947-.352.624 0 .992-.119 1.081-.352.074-.194.388-.352.697-.352.343 0 .562-.137.562-.352 0-.194.158-.352.352-.352a.354.354 0 0 0 .352-.352c0-.235.235-.352.704-.352.47 0 .704-.118.704-.353 0-.193.106-.352.235-.352 1.636 0 1.506-2.205-.235-3.99-.774-.794-1.408-1.542-1.408-1.661 0-.12-.423-.217-.939-.217-.517 0-.939.095-.939.212 0 .35-1.471 1.9-1.804 1.9-.17 0-.309.104-.309.231 0 .126-.264.296-.587.377-.322.081-.586.242-.586.357 0 .394-5.162.255-5.315-.143-.074-.194-.273-.352-.442-.352-.169 0-.343-.079-.386-.176-.043-.097-.469-.375-.946-.617-.601-.306-.914-.65-1.017-1.115-.081-.371-.245-.674-.364-.674s-.216-.159-.216-.352a.353.353 0 0 0-.352-.352c-.27 0-.352-.3-.352-1.291 0-1.018-.078-1.292-.369-1.292-.335 0-.335-.033 0-.368.224-.225.369-.777.369-1.409 0-.572.098-1.039.219-1.039.12 0 .293-.238.385-.529.091-.29.415-.76.72-1.045.304-.284.554-.627.554-.763 0-.135.158-.246.352-.246.194 0 .352-.147.352-.326 0-.18.264-.393.587-.474.323-.081.587-.251.587-.378 0-.126.317-.23.704-.23.469 0 .704-.117.704-.352 0-.282.352-.352 1.761-.352 1.408 0 1.76.07 1.76.352 0 .246.249.352.829.352.521 0 .88.131.964.352.075.194.283.352.462.352.18 0 .327.159.327.352 0 .194.159.352.353.352.193 0 .352.159.352.352 0 .194.158.353.352.353.193 0 .352.158.352.352 0 .246.249.352.829.352.52 0 .879-.131.964-.352.074-.194.282-.352.462-.352.18 0 .327-.159.327-.353 0-.193.159-.352.352-.352.194 0 .357-.132.362-.293.006-.161.323-.553.704-.869.778-.645 1.016-2.124.343-2.124a.353.353 0 0 1-.352-.352.353.353 0 0 0-.353-.352.354.354 0 0 1-.352-.352.353.353 0 0 0-.352-.352.354.354 0 0 1-.352-.353.353.353 0 0 0-.352-.352c-.194 0-.352-.094-.352-.209 0-.115-.264-.276-.587-.357-.323-.081-.587-.25-.587-.377s-.32-.23-.711-.23c-.416 0-.768-.147-.847-.353-.101-.262-.519-.352-1.643-.352s-1.543-.089-1.644-.352c-.1-.261-.515-.352-1.607-.352-1.022 0-1.561.108-1.764.352m-137.089 12.676v12.324h17.136v-5.399h-11.267V175.117h-5.869v12.324m69.953 0v12.324h5.869v-24.648h-5.869v12.324m26.526-9.741v2.582h6.807v19.483h5.869v-19.483h6.807v-5.165h-19.483v2.583m20.765-2.289c-.062.161-.085 5.681-.052 12.265l.062 11.972 2.992.066 2.993.065v-24.662h-2.941c-2.137 0-2.973.081-3.054.294m-86.342 5.223c.194.193.662.352 1.04.352.454 0 .687.119.687.352 0 .194.147.352.327.352.18 0 .388.159.462.352.075.194.35.352.612.352.321 0 .477.154.477.47 0 .489.766 1.408 1.174 1.408.129 0 .234.476.234 1.057 0 .782.092 1.056.353 1.056.26 0 .352.274.352 1.056 0 .783-.092 1.057-.352 1.057-.253 0-.353.258-.353.914 0 .595-.122.96-.352 1.048-.193.075-.352.403-.352.73 0 .372-.132.594-.352.594a.353.353 0 0 0-.352.352c0 .194-.095.352-.21.352-.116 0-.459.263-.763.583-.304.321-.79.585-1.081.587-.311.002-.528.149-.528.356 0 .27-.3.352-1.291.352-1.063 0-1.296.073-1.319.411-.025.391-.032.391-.134 0-.086-.328-.366-.411-1.381-.411-.861 0-1.275-.095-1.277-.293-.001-.162-.424-.496-.939-.742-.515-.247-.936-.537-.936-.646 0-.108-.159-.197-.352-.197-.194 0-.352-.147-.352-.327 0-.18-.159-.388-.352-.462-.194-.074-.353-.402-.353-.729 0-.372-.131-.594-.352-.594-.254 0-.352-.261-.352-.939 0-.679-.098-.939-.352-.939-.244 0-.352-.245-.352-.797 0-.491.135-.848.352-.931.249-.096.352-.483.352-1.317 0-.662.108-1.181.245-1.181.385 0 1.104-.774 1.199-1.291.051-.272.308-.501.613-.544.289-.042.525-.226.525-.411 0-.185.159-.336.352-.336a.353.353 0 0 0 .353-.352c0-.246.248-.352.829-.352.52 0 .879-.131.964-.352.099-.259.507-.352 1.535-.352.931 0 1.518.118 1.752.352M26.995 206.69a.353.353 0 0 1-.352.352.354.354 0 0 0-.352.352.353.353 0 0 1-.352.352.353.353 0 0 0-.352.353c0 .193-.106.352-.235.352s-.235.158-.235.352c0 .193-.12.352-.266.352-.147 0-.511.264-.811.587-.299.323-.654.587-.789.587-.136 0-.246.158-.246.352a.354.354 0 0 1-.352.352.353.353 0 0 0-.353.352.353.353 0 0 1-.352.352c-.193 0-.352.111-.352.246s-.264.491-.587.79c-.322.299-.586.664-.586.81 0 .147-.159.267-.353.267-.193 0-.352.105-.352.235 0 .129-.158.234-.352.234a.354.354 0 0 0-.352.352.353.353 0 0 1-.352.352.353.353 0 0 0-.352.353.354.354 0 0 1-.352.352.353.353 0 0 0-.352.352.354.354 0 0 1-.352.352.353.353 0 0 0-.353.352c0 .194-.105.352-.234.352s-.235.159-.235.352a.353.353 0 0 1-.352.352c-.194 0-.352.106-.352.235s-.159.235-.352.235a.353.353 0 0 0-.353.352.353.353 0 0 1-.352.352.354.354 0 0 0-.352.352.353.353 0 0 1-.352.352.353.353 0 0 0-.352.352.353.353 0 0 1-.352.353.353.353 0 0 0-.352.352c0 .193-.106.352-.235.352s-.235.158-.235.352a.353.353 0 0 1-.352.352c-.193 0-.352.106-.352.235s-.158.234-.352.234a.353.353 0 0 0-.352.353.354.354 0 0 1-.352.352.353.353 0 0 0-.352.352.354.354 0 0 1-.352.352.353.353 0 0 0-.353.352.353.353 0 0 1-.352.352.354.354 0 0 0-.352.352c0 .194-.105.352-.235.352-.129 0-.234.159-.234.352 0 .194-.111.353-.246.353-.136 0-.491.264-.79.586-.299.323-.664.587-.81.587-.147 0-.267.159-.267.352a.353.353 0 0 1-.352.353.353.353 0 0 0-.352.352.354.354 0 0 1-.352.352c-.194 0-.352.11-.352.246 0 .135-.265.49-.587.79-.323.299-.587.663-.587.81 0 .147-.159.266-.352.266-.194 0-.352.106-.352.235s-.159.235-.352.235a.353.353 0 0 0-.353.352.353.353 0 0 1-.352.352.354.354 0 0 0-.352.352.353.353 0 0 1-.352.352.353.353 0 0 0-.352.352c0 .194-.146.353-.325.353-.302 0-.603.666-.611 1.349-.003.31 73.706.459 74.508.151.205-.078.372-.289.372-.469s.158-.327.352-.327a.354.354 0 0 0 .352-.352c0-.194.158-.352.352-.352a.353.353 0 0 0 .352-.353c0-.193.159-.352.352-.352a.353.353 0 0 0 .352-.352c0-.193.159-.352.352-.352a.353.353 0 0 0 .353-.352c0-.194.113-.352.252-.352.329 0 1.625-1.297 1.625-1.625 0-.139.159-.253.353-.253a.353.353 0 0 0 .352-.352c0-.194.158-.352.352-.352a.354.354 0 0 0 .352-.352c0-.194.158-.352.352-.352a.353.353 0 0 0 .352-.353c0-.193.159-.352.352-.352a.353.353 0 0 0 .352-.352c0-.193.114-.352.252-.352.325 0 .922-.597.922-.922 0-.138.159-.252.352-.252a.353.353 0 0 0 .352-.352c0-.193.159-.352.352-.352a.353.353 0 0 0 .353-.352c0-.194.158-.352.352-.352a.354.354 0 0 0 .352-.352c0-.194.158-.352.352-.352a.353.353 0 0 0 .352-.352c0-.194.113-.353.251-.353.325 0 .923-.597.923-.922 0-.138.158-.251.352-.251a.354.354 0 0 0 .352-.352c0-.194.158-.352.352-.352a.353.353 0 0 0 .352-.353c0-.193.159-.352.352-.352a.353.353 0 0 0 .352-.352c0-.193.159-.352.352-.352a.353.353 0 0 0 .353-.352c0-.194.113-.352.251-.352.325 0 .922-.597.922-.922 0-.139.159-.252.352-.252a.353.353 0 0 0 .353-.352c0-.194.158-.352.352-.352a.354.354 0 0 0 .352-.352c0-.194.158-.352.352-.352a.353.353 0 0 0 .352-.352c0-.194.158-.353.352-.353a.353.353 0 0 0 .352-.352c0-.193.159-.352.352-.352a.353.353 0 0 0 .352-.352c0-.194.114-.352.252-.352.325 0 .922-.597.922-.922 0-.139.159-.252.352-.252a.353.353 0 0 0 .352-.352c0-.193.159-.352.352-.352a.353.353 0 0 0 .353-.352c0-.194.158-.352.352-.352a.354.354 0 0 0 .352-.352c0-.194.158-.352.352-.352a.353.353 0 0 0 .352-.352c0-.194.113-.353.252-.353.325 0 .922-.597.922-.922 0-.138.158-.251.352-.251a.353.353 0 0 0 .352-.352c0-.194.158-.353.352-.353.235 0 .352-.234.352-.704v-.704H64.319c-33.02 0-37.324.041-37.324.352" />
    <path fill="#fce304"
      d="M321.362.911c-.517.502-.939 1.03-.939 1.174 0 .144-.159.262-.353.262a.354.354 0 0 0-.352.353.353.353 0 0 1-.352.352.353.353 0 0 0-.352.352c0 .193-.101.352-.226.352-.315 0-2.356 2.015-2.356 2.326 0 .141-.159.256-.352.256a.353.353 0 0 0-.352.352.353.353 0 0 1-.352.352.354.354 0 0 0-.353.352.353.353 0 0 1-.352.352.354.354 0 0 0-.352.353c0 .193-.114.352-.253.352-.328 0-1.625 1.296-1.625 1.625 0 .139-.158.253-.352.253a.353.353 0 0 0-.352.352.353.353 0 0 1-.352.352.353.353 0 0 0-.352.352.353.353 0 0 1-.352.352.353.353 0 0 0-.352.352c0 .194-.114.352-.253.352-.329 0-1.625 1.297-1.625 1.625 0 .139-.159.253-.352.253a.354.354 0 0 0-.353.352.353.353 0 0 1-.352.352.354.354 0 0 0-.352.353.353.353 0 0 1-.352.352.353.353 0 0 0-.352.352c0 .193-.114.352-.253.352-.33 0-2.329 1.999-2.329 2.329 0 .139-.159.253-.352.253a.353.353 0 0 0-.352.352.353.353 0 0 1-.352.352.354.354 0 0 0-.353.352.353.353 0 0 1-.352.353.353.353 0 0 0-.352.352c0 .193-.114.352-.253.352-.328 0-1.625 1.296-1.625 1.625 0 .139-.158.253-.352.253a.353.353 0 0 0-.352.352.353.353 0 0 1-.352.352.353.353 0 0 0-.352.352.353.353 0 0 1-.352.352.353.353 0 0 0-.352.352c0 .194-.114.352-.253.352-.329 0-1.625 1.297-1.625 1.626 0 .139-.159.252-.352.252-.235 0-.353.235-.353.705v.704H369.667L383.66 14.4C391.356 6.699 397.653.308 397.653.199c0-.11-16.955-.199-37.676-.199h-37.676l-.939.911M26.408 130.921c-.527.13-1.291.856-1.291 1.229 0 .134-.158.244-.352.244a.354.354 0 0 0-.352.352.353.353 0 0 1-.352.353.353.353 0 0 0-.352.352c0 .193-.114.352-.254.352-.33 0-3.032 2.702-3.032 3.033 0 .139-.159.253-.353.253a.354.354 0 0 0-.352.352.353.353 0 0 1-.352.352.354.354 0 0 0-.352.353c0 .193-.114.352-.253.352-.33 0-2.329 1.999-2.329 2.329 0 .139-.159.253-.352.253a.353.353 0 0 0-.352.352.353.353 0 0 1-.352.352.353.353 0 0 0-.353.352c0 .194-.113.352-.253.352-.33 0-2.329 1.999-2.329 2.329 0 .139-.158.253-.352.253a.354.354 0 0 0-.352.353.353.353 0 0 1-.352.352.353.353 0 0 0-.352.352c0 .193-.114.352-.253.352-.33 0-2.329 1.999-2.329 2.329 0 .139-.159.253-.352.253a.353.353 0 0 0-.353.352.353.353 0 0 1-.352.352.354.354 0 0 0-.352.352c0 .194-.114.352-.253.352-.331 0-3.033 2.703-3.033 3.033 0 .14-.159.254-.352.254a.353.353 0 0 0-.352.352.353.353 0 0 1-.352.352.354.354 0 0 0-.353.352c0 .194-.118.352-.262.352-.144 0-.672.423-1.174.94l-.911.939v37.676c0 24.493.081 37.675.23 37.675.127 0 6.36-6.132 13.85-13.626l13.62-13.627v-37.053c0-38.221.007-37.854-.783-37.31a4.53 4.53 0 0 1-.509.143" />
  </g>
</svg>