<svg xmlns="http://www.w3.org/2000/svg" viewBox="5 27.97 199 153.923">
  <path fill="#fff"
    d="m5 102 1-28 .45-3.25c1.92-14.04 15.43-42.7 20.17-42.78 2.19-.04 20.89 19.1 25.68 26.29 3.17 4.75 3.17 4.75-.09 16-7.13 24.58-1.72 44.44 16.47 60.5 41.82 36.9 103.79-2.96 89.88-57.82-3.63-14.32-4.36-12.75 12.93-27.48 17.53-14.95 17.11-14.95 23.83-.03 3.27 7.28 5.52 14.16 8.68 30.57v27l-.95 5.25c-5.32 29.39-28.2 58.78-54.91 70.52-12.53 5.51-13.15 5.24-30.22-13.37-16.2-17.67-13.04-17.84-30.52 1.63-14.8 16.48-14.97 16.55-26.28 11.31C35.66 166.56 17 143.82 5 102z" />
  <path fill="#fff"
    d="M61.343 88.739a43.684 43.684 0 0 1 87.369 0 43.684 43.684 0 0 1-87.369 0m22.567-.017a21.113 21.113 0 0 0 42.226 0 21.113 21.113 0 0 0-42.226 0" />
</svg>