<svg xmlns="http://www.w3.org/2000/svg" viewBox="28.782 68.005 308.533 125.615">
  <path fill="#fbfafa" fill-rule="evenodd"
    d="M113.027 68.3c-14.16 1.65-26.7 8.064-38.72 19.819l-3.76 3.673-2.27-.752c-10.44-3.46-19 3.697-26.9 22.472-1.72 4.095-1.79 4.415-1.27 5.647.87 2.096 2.99 2.672 5.59 1.52 3.26-1.438 7.75-2.294 8.68-1.65.18.122.55 1.255.82 2.517 1.78 8.28 8.7 15.12 16.93 16.738 1.17.23 2.28.57 2.47.758.85.852.2 5.115-1.28 8.338-1.56 3.418-.48 6.125 2.45 6.13 3.56.006 18.29-7.776 22.76-12.023 5.04-4.783 6.77-11.02 4.55-16.384-.94-2.263-1.01-2.071 1.68-4.512 11.75-10.661 19.68-25.383 21.21-39.347.8-7.288.41-11.631-1.15-12.651-.75-.496-8.41-.686-11.79-.293m41.273.1c-11.824 1.744-18.493 8.39-18.003 17.933.44 8.453 5.128 12.04 19.835 15.174 6.584 1.403 8.415 2.192 8.819 3.798 1.142 4.552-12.423 4.306-21.99-.398-1.068-.525-1.964-.93-1.99-.901-.17.193-5.474 12.196-5.474 12.387 0 .808 6.788 3.31 11.564 4.262 20.125 4.013 35.13-2.912 35.162-16.228.022-9.026-4.543-12.737-19.546-15.888-7.924-1.665-9.109-2.203-9.109-4.137 0-4.034 10.094-4.348 18.681-.581l2.252.987c.346.15.333.178 3.24-6.747 2.628-6.26 2.579-5.634.512-6.558-6.558-2.932-16.431-4.211-23.953-3.102m-30.983 2.79c1.19 1.476.27 11.92-1.65 18.547-4.45 15.418-19.2 32.636-34.99 40.856-5.38 2.796-16.83-3.803-23.21-13.38-.98-1.46-1.82-2.707-1.89-2.775-.24-.253.93 2.503 1.78 4.208 2.97 5.934 7.31 10.195 13.41 13.166 1.61.785 3.07 1.428 3.23 1.429 1.27.004-1.44 1.598-3.96 2.33-5.67 1.647-13.88-3.76-17.52-11.528-1.62-3.466-1.28-5.727 1.81-11.89 11.32-22.61 30.71-38.18 51.12-41.044 5.86-.823 11.17-.786 11.87.082m65.66 5.885v5.616h-5.617v11.966h5.578l.099 7.143c.15 10.87 1.773 14.626 7.551 17.465 4.753 2.335 13.504 2.708 18.562.79 2.019-.765 1.974-.69 1.394-2.334-.282-.8-1.156-3.307-1.942-5.573-1.672-4.82-1.44-4.452-2.465-3.903-1.605.858-4.169.632-5.268-.466l-.92-.92-.073-6.1-.073-6.102h8.326V82.693h-8.303V71.46h-16.849v5.617m120.39 0v5.616h-5.616v11.966h5.616v5.72c0 11.73 1.757 15.976 7.818 18.896 5.377 2.59 17.288 2.616 20.106.044.179-.164-.607-2.624-3.079-9.642-.647-1.837-.67-1.85-2.256-1.247-4.457 1.694-5.738-.112-5.738-8.093l-.001-5.678h8.303V82.693h-8.303V71.46h-16.85v5.617m-75.946 3.048c-19.473 4.333-20.836 34.302-1.831 40.255 5.862 1.837 12.463.946 16.422-2.214l1.038-.83v3.208H264.923V80.496h-16.85v2.431l-1.509-.975c-3.021-1.953-8.902-2.77-13.143-1.827m63.921-.11c-2.893.487-5.744 1.818-7.816 3.649l-1.16 1.024v-4.192H272.493v40.048h16.728v-9.83c0-10.728.079-11.506 1.367-13.451 1.55-2.34 3.619-3.154 7.973-3.141l2.992.01V79.763l-1.526.029c-.84.015-2.048.116-2.685.223M95.507 86.202c-7.43 2.827-9.41 12.165-3.74 17.58 6.42 6.119 16.87 2.66 18.09-5.984 1.14-8.013-6.83-14.454-14.35-11.596m7.53 3.478c5.56 1.65 5.62 10.088.09 12.202-1.45.554-1.49.429-.35-1.091 2.45-3.258 2.25-6.887-.52-9.6-.8-.778-1.56-1.416-1.69-1.416-.13 0-.23-.11-.23-.244 0-.363 1.2-.296 2.7.149m140.657 3.174c3.79 1.122 5.76 6.16 4.265 10.907-2.005 6.36-10.634 6.134-12.447-.327-1.866-6.65 2.479-12.268 8.182-10.58M30.277 111.103c-1.59 1.922-2.03 13.667-.74 20.029 4.47 22.09 27.27 37.787 49.18 33.855 5.33-.955 5.63-1.13 4.28-2.478-.59-.591-.91-.718-1.62-.656l-.88.076-.48-1.558c-1.9-6.196-10.95-6.906-14.28-1.121-.26.466-.33.44-1.34-.538-2.06-1.992-5.1-2.727-7.9-1.913l-1.44.417-.46-.638c-.26-.351-.78-.797-1.15-.99l-.68-.352.49-.982c2.27-4.596-3.07-10.057-7.57-7.733-1.04.542-1.13.518-1.59-.447-.22-.464-.74-1.021-1.16-1.237-.56-.291-.72-.502-.59-.805 1.03-2.453 1.13-2.903 1.03-4.578-.22-3.502-2.41-5.988-6.23-7.085-.17-.05-.31-.471-.31-.958 0-1.926-1.4-3.652-3.2-3.94l-.97-.155.47-.517c1.55-1.71 1.77-4.34.5-6.086l-.5-.686.97-1.044c1.64-1.787 1.93-4.023.76-5.921-.88-1.42-3.95-2.731-4.59-1.96m178.809 14.079c-2.078.544-3.505 1.23-4.888 2.353-1.321 1.07-1.302 1.08-1.302-.701v-1.527l-7.875.057-7.876.057v54.234h16.606l.064-8.31c.035-4.57.107-8.31.159-8.31.051 0 .653.377 1.336.837 9.636 6.485 24.692-.132 27.752-12.197 4.167-16.424-8.595-30.526-23.976-26.493m43.871-.325c-10.309 1.582-16.01 6.847-15.559 14.37.429 7.154 4.516 10 16.667 11.605 6.113.807 6.964 1.133 6.613 2.532-.655 2.609-11.656 1.872-17.756-1.19l-1.648-.826-.616 1.509a576.5 576.5 0 0 1-2.217 5.29c-1.928 4.55-1.92 4.034-.075 4.89 5.04 2.34 14.183 3.636 20.847 2.956 11.808-1.206 18.489-7.656 16.724-16.144-1.199-5.764-5.404-8.33-16.02-9.773-6.205-.844-7.51-1.334-7.088-2.663.737-2.32 10.086-1.998 15.616.539.93.427 1.73.668 1.777.537.048-.132 1.067-2.547 2.265-5.367 2.462-5.794 2.461-5.332.021-6.25-4.655-1.748-14.606-2.774-19.551-2.015m27.839 10.218v10.379h6.349v-20.757h-6.349v10.378m27.595.008v10.386l2.991-.07c2.448-.055 2.997-.134 3.024-.434.018-.201.046-.445.061-.542.016-.096.418.089.893.41 3.045 2.068 8.119.45 9.893-3.152 3.332-6.77-3.068-14.471-9.373-11.28l-1.14.579V124.696h-6.349v10.386m-173.384-9.654c-.25 7.286.08 26.285.49 28.173 2.49 11.513 16.848 16.664 26.373 9.458l1.588-1.201.071 1.809.071 1.81h15.853v-40.171l-8.296.052-8.296.05-.081 10.694c-.07 9.399-.132 10.85-.509 11.99-1.749 5.295-8.52 5.669-10.212.564-.202-.608-.336-4.37-.43-12.062l-.137-11.18-8.242-.053c-4.533-.03-8.243 0-8.243.067m-82.75 2.575c-1.61 1.764-2.81 3.898-3.61 6.409-.79 2.495-.59 2.74 1.19 1.466.65-.471.73-.107.22 1.076-1.11 2.585-1.23 5.587-.28 6.545.95.95 4.91.754 7.13-.352 1.19-.592 1.29-.282.32.984-.8 1.05-.78 1.373.06 1.17 5.59-1.342 10.98-5.33 8.92-6.601-5.11-3.155-7.84-5.664-10.42-9.548-1.94-2.92-1.92-2.913-3.53-1.15m240.819 2.296c-1.472.398-2.595.823-2.952 1.118-.04.033.386.987.947 2.118l1.021 2.058 1.001-.495c2.076-1.027 5.075-.72 5.777.594.348.65.217.683-3.178.775-5.126.139-7.49 2.608-5.973 6.238 1.27 3.042 6.625 4.088 8.961 1.752.896-.896.919-.893.919.142v.855H305.46l-.003-4.701c-.003-5.6-.08-6.162-1.068-7.816-1.641-2.746-6.62-3.907-11.313-2.638m25.654 4.912c2.302 1.81.566 6.187-2.18 5.498-2.973-.747-2.421-6 .632-6 .549 0 1.164.199 1.548.502m-105.649 2.885c5.024 2.589 5.088 11.884.1 14.49-5.795 3.028-11.308-3.167-9.217-10.357 1.126-3.875 5.644-5.923 9.117-4.133m86.03 1.85c0 1.476-2.16 2.544-3.274 1.62-1.149-.954-.019-2.217 1.985-2.217 1.204 0 1.289.039 1.289.597m6.917 26.67c-.945.2-1.789 1.275-1.789 2.28 0 2.549 3.915 3.248 5.034.9.88-1.845-.97-3.66-3.245-3.18m12.205 6.702c-4.64.593-7.336 5.372-5.769 10.226 1.351 4.183 7.106 6.214 10.699 3.775 1.1-.746 1.101-.746 1.101.137v.733h3.907v-7.204l.001-7.387c.001-.101-.933-.215-2.075-.254l-2.078-.07v.742c0 .728-.311.98-.611.496-.528-.854-3.134-1.455-5.175-1.194m-103.069.71c-4.867 2.45-5.294 10.054-.737 13.099 2.392 1.599 6.116 1.628 8.066.064l.916-.735v1.733h4.158l-.064-7.387-.065-7.387h-4.151l-.077.664-.076.665-1.004-.665c-1.628-1.078-4.879-1.101-6.966-.05m19.478-.108c-3.322 1.542-4.839 4.94-3.801 8.51 1.26 4.335 7.106 6.422 10.944 3.909l.916-.6v.866c0 3.545-4.342 4.91-8.598 2.702l-1.152-.598-.742 1.37c-.933 1.724-.941 1.66.296 2.293 3.686 1.884 9.826 1.593 12.306-.584 1.994-1.751 2.327-3.548 2.233-12.025l-.07-6.35h-3.907l-.077.794c-.085.884-.31.992-.809.389-1.175-1.42-5.165-1.778-7.539-.676m20.128-.126c-4.702 1.809-6.223 7.994-2.925 11.896 2.198 2.599 7.293 3.444 10.792 1.787 2.264-1.071 2.341-1.288.956-2.695l-1.166-1.183-.852.579c-2.139 1.45-5.559.903-6.725-1.078-.753-1.28-.826-1.261 5.162-1.261h5.591l.146-.586c1.263-5.028-5.448-9.587-10.979-7.46m14.06 6.937v7.458h4.105l.084-4.5c.106-5.653.713-6.79 3.625-6.79 2.704 0 3.142.964 3.161 6.955l.014 4.335H284.004l-.078-5.576-.078-5.575-.736-1.19c-1.731-2.8-6.498-3.518-9.339-1.41-.843.627-1.165.44-.991-.571.069-.405-.131-.46-1.937-.523l-2.015-.071v7.458m23.414-7.031c-6.118 2.042-6.916 10.503-1.278 13.56 3.426 1.86 8.711 1.12 10.467-1.464.791-1.163.847-1.046-.966-2.014l-1.574-.841-.772.79c-2.559 2.618-6.582.759-6.579-3.04.002-3.797 4.208-5.453 6.802-2.677l.576.617 1.497-.83c1.867-1.035 1.877-1.071.641-2.411-1.811-1.966-5.736-2.718-8.814-1.69m12.484 7.03v7.459h4.402l-.064-7.387-.065-7.387-2.137-.071-2.136-.07v7.457m-44.565-3.791c.606.382 1.216 1.188 1.444 1.908l.174.55h-3.679c-4.023 0-4.044-.01-3.203-1.39.978-1.604 3.576-2.132 5.264-1.068m-37.96.919c2.811 3.014.144 7.94-3.733 6.896-2.602-.7-3.7-3.97-2.174-6.472 1.166-1.91 4.31-2.136 5.907-.424m19.079-.53c2.067 1.54 1.878 4.958-.341 6.135-3.57 1.893-7.644-1.86-5.5-5.068 1.13-1.692 4.238-2.26 5.841-1.066m81.053-.064c2.866 1.915 1.943 6.904-1.409 7.614-4.098.868-6.323-5.23-2.779-7.618 1.128-.76 3.047-.758 4.188.004" />
</svg>